<?xml version="1.0" encoding="utf-8"?>
<!-- Generator: Adobe Illustrator 16.0.3, SVG Export Plug-In . SVG Version: 6.00 Build 0)  -->
<!DOCTYPE svg PUBLIC "-//W3C//DTD SVG 1.1//EN" "http://www.w3.org/Graphics/SVG/1.1/DTD/svg11.dtd">
<svg version="1.1" id="Layer_1" xmlns="http://www.w3.org/2000/svg"  x="0px" y="0px"
	 width="20px" height="20px" fill="#202d43" viewBox="0 0 20 20" enable-background="new 0 0 20 20" xml:space="preserve">
<g>
	<path d="M18.232,5.483c-0.443,0.648-0.979,1.2-1.606,1.656c0.006,0.093,0.01,0.231,0.01,0.417
		c0,0.86-0.126,1.718-0.377,2.574c-0.252,0.856-0.633,1.678-1.146,2.464c-0.513,0.787-1.122,1.482-1.83,2.088
		c-0.707,0.604-1.561,1.088-2.559,1.448s-2.066,0.54-3.203,0.54c-1.792,0-3.432-0.479-4.919-1.438
		c0.231,0.027,0.489,0.04,0.773,0.04c1.488,0,2.813-0.456,3.977-1.368c-0.694-0.014-1.316-0.227-1.865-0.64s-0.926-0.94-1.13-1.582
		c0.218,0.033,0.419,0.05,0.605,0.05c0.284,0,0.565-0.037,0.843-0.109c-0.741-0.152-1.354-0.521-1.84-1.106
		C3.48,9.931,3.237,9.251,3.237,8.478v-0.04C3.687,8.69,4.169,8.825,4.685,8.845C4.249,8.554,3.901,8.174,3.644,7.705
		C3.386,7.235,3.257,6.726,3.257,6.177c0-0.582,0.146-1.121,0.437-1.617c0.8,0.985,1.773,1.774,2.92,2.366
		c1.147,0.592,2.375,0.92,3.685,0.987c-0.053-0.251-0.08-0.496-0.08-0.734c0-0.886,0.313-1.641,0.938-2.266
		c0.625-0.625,1.38-0.937,2.266-0.937c0.926,0,1.706,0.337,2.341,1.012c0.721-0.139,1.398-0.397,2.033-0.773
		c-0.245,0.76-0.714,1.349-1.408,1.765C17.003,5.913,17.617,5.748,18.232,5.483z"/>
</g>
</svg>
