<?xml version="1.0" encoding="utf-8"?>
<!-- Generator: Adobe Illustrator 16.0.3, SVG Export Plug-In . SVG Version: 6.00 Build 0)  -->
<!DOCTYPE svg PUBLIC "-//W3C//DTD SVG 1.1//EN" "http://www.w3.org/Graphics/SVG/1.1/DTD/svg11.dtd">
<svg version="1.1" id="Layer_1" xmlns="http://www.w3.org/2000/svg" xmlns:xlink="http://www.w3.org/1999/xlink" x="0px" y="0px"
	 width="20px" height="20px" fill="#202d43" viewBox="0 0 20 20" enable-background="new 0 0 20 20" xml:space="preserve">
<g>
	<path d="M9.896,6.567v7.745c0,1.625-0.788,2.438-2.364,2.438H5.393c-1.576,0-2.365-0.813-2.365-2.438V6.567
		c0-1.625,0.789-2.438,2.365-2.438h2.139C9.108,4.129,9.896,4.942,9.896,6.567z M7.081,13.86V7.02c0-0.288-0.134-0.433-0.402-0.433
		H6.245c-0.269,0-0.403,0.145-0.403,0.433v6.841c0,0.288,0.134,0.433,0.403,0.433h0.434C6.947,14.293,7.081,14.148,7.081,13.86z"/>
	<path d="M17.414,6.567v7.745c0,1.625-0.788,2.438-2.364,2.438h-2.14c-1.577,0-2.365-0.813-2.365-2.438V6.567
		c0-1.625,0.788-2.438,2.365-2.438h2.14C16.626,4.129,17.414,4.942,17.414,6.567z M14.599,13.86V7.02
		c0-0.288-0.136-0.433-0.402-0.433h-0.434c-0.27,0-0.402,0.145-0.402,0.433v6.841c0,0.288,0.133,0.433,0.402,0.433h0.434
		C14.463,14.293,14.599,14.148,14.599,13.86z"/>
</g>
</svg>
